<svg width="45" height="46" viewBox="0 0 45 46" fill="none" xmlns="http://www.w3.org/2000/svg">
<g filter="url(#filter0_d_5_59)">
<path d="M22.5506 12.007L22.6646 12L22.7826 12.007L22.8416 12.015L22.9026 12.028L23.0136 12.062C23.0903 12.0903 23.1632 12.1279 23.2306 12.174L23.3346 12.256L23.5896 12.474C25.607 14.1496 28.1565 15.0493 30.7786 15.011L31.1206 15.001C31.3442 14.9908 31.5648 15.0559 31.747 15.1859C31.9292 15.3159 32.0625 15.5033 32.1256 15.718C32.617 17.3896 32.7674 19.1429 32.5678 20.8737C32.3682 22.6046 31.8227 24.2776 30.9638 25.7935C30.1048 27.3093 28.9499 28.6371 27.5677 29.6978C26.1855 30.7585 24.6041 31.5305 22.9176 31.968C22.753 32.0107 22.5803 32.0107 22.4156 31.968C20.7291 31.5306 19.1476 30.7587 17.7653 29.698C16.3829 28.6374 15.2279 27.3096 14.3689 25.7938C13.5098 24.2779 12.9642 22.6048 12.7646 20.8739C12.5649 19.143 12.7153 17.3896 13.2066 15.718C13.2698 15.5033 13.4031 15.3159 13.5853 15.1859C13.7675 15.0559 13.988 14.9908 14.2116 15.001C16.9491 15.1261 19.6347 14.225 21.7426 12.474L22.0056 12.249L22.1016 12.174C22.1691 12.1279 22.242 12.0903 22.3186 12.062L22.4306 12.028C22.4698 12.0186 22.5106 12.0116 22.5506 12.007Z" fill="url(#paint0_linear_5_59)"/>
<path d="M22.5506 12.007L22.6646 12L22.7826 12.007L22.8416 12.015L22.9026 12.028L23.0136 12.062C23.0903 12.0903 23.1632 12.1279 23.2306 12.174L23.3346 12.256L23.5896 12.474C25.607 14.1496 28.1565 15.0493 30.7786 15.011L31.1206 15.001C31.3442 14.9908 31.5648 15.0559 31.747 15.1859C31.9292 15.3159 32.0625 15.5033 32.1256 15.718C32.617 17.3896 32.7674 19.1429 32.5678 20.8737C32.3682 22.6046 31.8227 24.2776 30.9638 25.7935C30.1048 27.3093 28.9499 28.6371 27.5677 29.6978C26.1855 30.7585 24.6041 31.5305 22.9176 31.968C22.753 32.0107 22.5803 32.0107 22.4156 31.968C20.7291 31.5306 19.1476 30.7587 17.7653 29.698C16.3829 28.6374 15.2279 27.3096 14.3689 25.7938C13.5098 24.2779 12.9642 22.6048 12.7646 20.8739C12.5649 19.143 12.7153 17.3896 13.2066 15.718C13.2698 15.5033 13.4031 15.3159 13.5853 15.1859C13.7675 15.0559 13.988 14.9908 14.2116 15.001C16.9491 15.1261 19.6347 14.225 21.7426 12.474L22.0056 12.249L22.1016 12.174C22.1691 12.1279 22.242 12.0903 22.3186 12.062L22.4306 12.028C22.4698 12.0186 22.5106 12.0116 22.5506 12.007Z" fill="url(#paint1_radial_5_59)" fill-opacity="0.5" style="mix-blend-mode:overlay"/>
</g>
<defs>
<filter id="filter0_d_5_59" x="0.378955" y="0.7" width="44.5744" height="44.6" filterUnits="userSpaceOnUse" color-interpolation-filters="sRGB">
<feFlood flood-opacity="0" result="BackgroundImageFix"/>
<feColorMatrix in="SourceAlpha" type="matrix" values="0 0 0 0 0 0 0 0 0 0 0 0 0 0 0 0 0 0 127 0" result="hardAlpha"/>
<feOffset dy="1"/>
<feGaussianBlur stdDeviation="6.15"/>
<feComposite in2="hardAlpha" operator="out"/>
<feColorMatrix type="matrix" values="0 0 0 0 0.442431 0 0 0 0 0.958333 0 0 0 0 0.415278 0 0 0 0.24 0"/>
<feBlend mode="normal" in2="BackgroundImageFix" result="effect1_dropShadow_5_59"/>
<feBlend mode="normal" in="SourceGraphic" in2="effect1_dropShadow_5_59" result="shape"/>
</filter>
<linearGradient id="paint0_linear_5_59" x1="22.6662" y1="22" x2="22.6662" y2="32" gradientUnits="userSpaceOnUse">
<stop stop-color="#00FF5D"/>
<stop offset="1" stop-color="#00D54E"/>
</linearGradient>
<radialGradient id="paint1_radial_5_59" cx="0" cy="0" r="1" gradientUnits="userSpaceOnUse" gradientTransform="translate(26.8849 29.2) rotate(125.015) scale(12.4542 30.4409)">
<stop offset="0.132895" stop-color="white"/>
<stop offset="1" stop-color="white" stop-opacity="0"/>
</radialGradient>
</defs>
</svg>
