<svg width="43" height="45" viewBox="0 0 43 45" fill="none" xmlns="http://www.w3.org/2000/svg">
<g filter="url(#filter0_d_5_64)">
<path d="M19.9194 12L13.3334 18.586C13.0536 18.8657 12.8629 19.2221 12.7857 19.6102C12.7084 19.9982 12.748 20.4005 12.8994 20.766L12.9674 20.911C13.1351 21.2388 13.3901 21.5139 13.7041 21.706C14.0182 21.8982 14.3792 21.9999 14.7474 22H17.3334V29C17.3334 29.5304 17.5441 30.0391 17.9192 30.4142C18.2943 30.7893 18.803 31 19.3334 31H23.3334L23.4834 30.995C23.9866 30.9572 24.4568 30.7305 24.7999 30.3605C25.143 29.9906 25.3336 29.5046 25.3334 29L25.3324 22H27.9194C28.3149 21.9999 28.7015 21.8826 29.0303 21.6628C29.3592 21.443 29.6154 21.1307 29.7668 20.7653C29.9181 20.3999 29.9577 19.9978 29.8806 19.6099C29.8035 19.222 29.613 18.8657 29.3334 18.586L22.7474 12C22.3724 11.6251 21.8638 11.4144 21.3334 11.4144C20.8031 11.4144 20.2945 11.6251 19.9194 12Z" fill="url(#paint0_linear_5_64)"/>
<path d="M19.9194 12L13.3334 18.586C13.0536 18.8657 12.8629 19.2221 12.7857 19.6102C12.7084 19.9982 12.748 20.4005 12.8994 20.766L12.9674 20.911C13.1351 21.2388 13.3901 21.5139 13.7041 21.706C14.0182 21.8982 14.3792 21.9999 14.7474 22H17.3334V29C17.3334 29.5304 17.5441 30.0391 17.9192 30.4142C18.2943 30.7893 18.803 31 19.3334 31H23.3334L23.4834 30.995C23.9866 30.9572 24.4568 30.7305 24.7999 30.3605C25.143 29.9906 25.3336 29.5046 25.3334 29L25.3324 22H27.9194C28.3149 21.9999 28.7015 21.8826 29.0303 21.6628C29.3592 21.443 29.6154 21.1307 29.7668 20.7653C29.9181 20.3999 29.9577 19.9978 29.8806 19.6099C29.8035 19.222 29.613 18.8657 29.3334 18.586L22.7474 12C22.3724 11.6251 21.8638 11.4144 21.3334 11.4144C20.8031 11.4144 20.2945 11.6251 19.9194 12Z" fill="url(#paint1_radial_5_64)" fill-opacity="0.5" style="mix-blend-mode:overlay"/>
</g>
<defs>
<filter id="filter0_d_5_64" x="0.447192" y="0.114429" width="41.7718" height="44.1856" filterUnits="userSpaceOnUse" color-interpolation-filters="sRGB">
<feFlood flood-opacity="0" result="BackgroundImageFix"/>
<feColorMatrix in="SourceAlpha" type="matrix" values="0 0 0 0 0 0 0 0 0 0 0 0 0 0 0 0 0 0 127 0" result="hardAlpha"/>
<feOffset dy="1"/>
<feGaussianBlur stdDeviation="6.15"/>
<feComposite in2="hardAlpha" operator="out"/>
<feColorMatrix type="matrix" values="0 0 0 0 0.442431 0 0 0 0 0.958333 0 0 0 0 0.415278 0 0 0 0.24 0"/>
<feBlend mode="normal" in2="BackgroundImageFix" result="effect1_dropShadow_5_64"/>
<feBlend mode="normal" in="SourceGraphic" in2="effect1_dropShadow_5_64" result="shape"/>
</filter>
<linearGradient id="paint0_linear_5_64" x1="21.3331" y1="21.2072" x2="21.3331" y2="31" gradientUnits="userSpaceOnUse">
<stop stop-color="#00FF5D"/>
<stop offset="1" stop-color="#00D54E"/>
</linearGradient>
<radialGradient id="paint1_radial_5_64" cx="0" cy="0" r="1" gradientUnits="userSpaceOnUse" gradientTransform="translate(24.9599 28.258) rotate(121.593) scale(11.7266 27.2173)">
<stop offset="0.132895" stop-color="white"/>
<stop offset="1" stop-color="white" stop-opacity="0"/>
</radialGradient>
</defs>
</svg>
