<svg width="32" height="32" viewBox="0 0 32 32" fill="none" xmlns="http://www.w3.org/2000/svg">
<g clip-path="url(#clip0_5_204)">
<path d="M28.66 32C20.1933 32 11.7267 32 3.26 32C3.18583 31.9633 3.10667 31.9742 3.0275 31.9683C2.65167 31.9383 2.31 31.7958 1.98083 31.6242C1.48917 31.3683 1.0775 31.015 0.7375 30.5792C0.41 30.1592 0.176667 29.6917 0.0566667 29.1708C0.0241667 29.0308 0.0308333 28.8867 0.0225 28.7442C0.0208333 28.7158 0.03 28.6825 0 28.6608C0 20.22 0 11.78 0 3.34C0.0358333 3.28417 0.0208333 3.22 0.0225 3.16083C0.0316667 2.77417 0.153333 2.4175 0.325 2.08C0.768333 1.20667 1.4375 0.573333 2.35417 0.205C2.63417 0.0925 2.92167 0.0308333 3.22083 0.0158333C3.26083 0.0133333 3.30583 0.05 3.34 0C11.8267 0 20.3133 0 28.8 0C28.8592 0.0641667 28.94 0.03 29.0075 0.035C29.1675 0.0475 29.3192 0.0883333 29.4683 0.139167C30.0775 0.344167 30.6 0.685833 31.0367 1.15583C31.4858 1.63917 31.7967 2.1975 31.945 2.84333C31.9767 2.98167 31.9692 3.12417 31.9775 3.265C31.9792 3.29167 31.9717 3.32083 31.9992 3.34C31.9992 11.78 31.9992 20.22 31.9992 28.66C31.9508 28.7267 31.97 28.8067 31.9708 28.8758C31.9733 29.1008 31.9183 29.3125 31.8433 29.5183C31.4908 30.4808 30.8533 31.195 29.9433 31.6625C29.6825 31.7967 29.4083 31.905 29.1133 31.9483C28.9867 31.9667 28.86 31.97 28.7333 31.9758C28.7067 31.9775 28.6792 31.9733 28.66 32Z" fill="#0081FF"/>
<path d="M19.6309 18.4925C19.3943 18.7758 19.1576 19.1183 18.8626 19.3991C18.2626 19.9691 17.5126 20.2666 16.7151 20.44C15.7543 20.6491 14.7876 20.6216 13.8184 20.4908C12.6084 20.3283 11.5459 19.8383 10.6201 19.0558C9.84094 18.3966 9.28177 17.5725 8.88344 16.6358C8.47677 15.6808 8.26677 14.6766 8.1601 13.6516C8.00594 12.17 8.0776 10.7 8.52094 9.2683C8.8851 8.09246 9.43844 7.0183 10.2776 6.09913C11.2501 5.0333 12.4318 4.33996 13.8418 4.04913C14.6301 3.88663 15.4259 3.88663 16.2226 4.0158C17.6393 4.24663 18.7334 4.9733 19.5351 6.1558C19.5559 6.18246 19.6343 6.29913 19.6343 6.29913C19.6343 6.29913 19.6343 5.9008 19.6343 5.72996C19.6334 5.29996 19.6343 4.35413 19.6343 4.35413C19.6343 4.35413 19.7251 4.35413 19.7468 4.35413C21.0201 4.34996 23.9109 4.3533 23.9109 4.3533C23.9109 4.3533 23.9101 4.51663 23.9101 4.70996C23.9101 10.0766 23.9176 15.4433 23.9059 20.8091C23.9026 22.5058 23.4234 24.0591 22.3359 25.3883C21.4901 26.4216 20.3984 27.1025 19.1484 27.5425C17.9318 27.9708 16.6734 28.1183 15.3918 28.0641C13.9909 28.005 12.6426 27.7016 11.4126 27.0108C9.56094 25.97 8.43594 24.4091 8.15677 22.2791C8.11927 21.9966 8.1101 21.7091 8.09927 21.4241C8.09844 21.4066 8.09344 21.315 8.09344 21.315C8.09344 21.315 8.1801 21.315 8.19844 21.315C9.46844 21.3091 10.7384 21.3083 12.0084 21.3125C12.0234 21.3125 12.0834 21.3133 12.0834 21.3133C12.0834 21.3133 12.0826 21.3933 12.0826 21.4066C12.0959 22.145 12.3009 22.8116 12.8134 23.36C13.1959 23.7691 13.6684 24.04 14.2051 24.1841C15.4518 24.52 16.6709 24.45 17.8293 23.8525C18.8709 23.315 19.5293 22.4741 19.6043 21.2816C19.6601 20.3825 19.6268 19.4766 19.6326 18.5741C19.6309 18.5291 19.6309 18.4825 19.6309 18.4925Z" fill="white"/>
<path d="M12.5641 12.485C12.5391 11.5025 12.6416 10.5375 13.0266 9.62252C13.4791 8.54836 14.2691 7.89419 15.4349 7.71586C16.2407 7.59252 17.0249 7.64502 17.7674 8.00502C18.5091 8.36502 18.9666 8.98002 19.2666 9.72502C19.5607 10.4542 19.7107 11.22 19.7216 12.0009C19.7316 12.6992 19.7291 13.4084 19.6216 14.0959C19.4057 15.4767 18.4474 16.7692 16.9774 17.1292C15.6366 17.4575 14.2532 16.9434 13.4541 15.8117C12.8924 15.0175 12.6332 14.1275 12.5657 13.1717C12.5507 12.9442 12.5641 12.7142 12.5641 12.485Z" fill="#0081FF"/>
</g>
<defs>
<clipPath id="clip0_5_204">
<rect width="32" height="32" fill="white"/>
</clipPath>
</defs>
</svg>
