<svg width="95" height="33" viewBox="0 0 95 33" fill="none" xmlns="http://www.w3.org/2000/svg">
<g clip-path="url(#clip0_5_26)">
<path d="M13.5714 32.9606L16.6152 17.1917L27.1429 10.03L16.6152 11.1758L13.5714 0.0394287L10.5277 11.1758L0 10.03L10.5277 17.1917L13.5714 32.9606Z" fill="url(#paint0_linear_5_26)"/>
<path d="M13.5714 32.9606L16.6152 17.1917L27.1429 10.03L16.6152 11.1758L13.5714 0.0394287L10.5277 11.1758L0 10.03L10.5277 17.1917L13.5714 32.9606Z" fill="url(#paint1_radial_5_26)" fill-opacity="0.5" style="mix-blend-mode:overlay"/>
<path d="M18.5729 10.0878L24.4303 9.44894L15.7979 5.0697L16.9407 9.25982L18.5729 10.0878Z" fill="#E3FFEC"/>
<path fill-rule="evenodd" clip-rule="evenodd" d="M10.1448 9.21761L8.44243 10.0812L2.58501 9.44241L11.2877 5.02747L10.1448 9.21761ZM2.14307 12.5241V19.3655L11.932 29.1432L10.8471 23.5115L5.35765 18.0283V14.7153L2.14307 12.5241ZM21.6449 18.0283V14.764L24.8595 12.5728V19.3655L15.159 29.0548L16.2438 23.4232L21.6449 18.0283Z" fill="#E3FFEC"/>
<path d="M31.1428 19.7783L37.231 12.8427H31.5665V10.3226H41.2007V12.8873L35.1793 19.6445H41.4013V22.2092H31.1428V19.7783Z" fill="#E3FFEC"/>
<path d="M42.3604 16.0317C42.3604 15.0058 42.5536 14.0246 42.9402 13.0879C43.3268 12.1513 43.9512 11.4079 44.8135 10.8578C45.6907 10.2928 46.7759 10.0104 48.0695 10.0104C49.4372 10.0104 50.53 10.3077 51.3477 10.9024C52.1654 11.4971 52.7527 12.2925 53.1095 13.2887C53.4663 14.2847 53.6447 15.3701 53.6447 16.5446V17.1022H45.4602C45.4602 18.0536 45.7129 18.7747 46.2185 19.2654C46.7091 19.7708 47.4004 20.0236 48.2925 20.0236C48.7533 20.0236 49.1771 19.8972 49.5636 19.6445C49.9502 19.3917 50.1955 19.0869 50.2996 18.7301H53.5109C53.2582 19.5627 52.8865 20.2466 52.3959 20.7818C51.8904 21.3468 51.2882 21.7779 50.5894 22.0753C49.861 22.3727 49.0953 22.5213 48.2925 22.5213C44.3377 22.5213 42.3604 20.3581 42.3604 16.0317ZM45.594 15.1173H50.4334C50.3739 14.3591 50.1212 13.7347 49.6751 13.2441C49.2291 12.798 48.679 12.575 48.0249 12.575C46.6273 12.575 45.817 13.4225 45.594 15.1173Z" fill="#E3FFEC"/>
<path d="M54.9814 22.2091V10.3226H57.9921V12.0621C58.7949 10.6942 59.9992 10.0104 61.6049 10.0104C62.4524 10.0104 63.1957 10.1664 63.835 10.4787C64.4595 10.8058 64.9352 11.2592 65.2623 11.8391C65.5894 12.4337 65.7529 13.1474 65.7529 13.9799V22.2091H62.6084V15.0281C62.6084 14.2847 62.4896 13.7049 62.2516 13.2887C62.0138 12.8723 61.4488 12.6642 60.5568 12.6642C59.7093 12.6642 59.0923 12.9318 58.7057 13.4671C58.3192 14.0171 58.1259 14.6639 58.1259 15.4073V22.2091H54.9814Z" fill="#E3FFEC"/>
<path d="M68.5847 22.2092V12.5751H66.8452V10.3227H68.5847V9.3637C68.5847 7.11876 69.7443 5.99622 72.0636 5.99622H73.625V8.5386H72.7994C72.3979 8.5386 72.1307 8.56086 71.9971 8.60546C71.8628 8.65007 71.7738 8.75411 71.7292 8.91768L71.6847 9.87665V10.3227H73.7141V12.5751H71.6847V22.2092H68.5847Z" fill="#E3FFEC"/>
<path d="M79.3496 22.6774L75.2909 11.3261L74.9565 10.3226H78.4356L80.9555 19.0647L83.4535 10.3226H86.7538L82.7841 21.7408L81.714 24.6846C81.4461 25.309 81.1641 25.7922 80.8665 26.1341C80.554 26.4909 80.1971 26.7214 79.7956 26.8255C79.3496 26.9445 78.7778 27.0039 78.0787 27.0039L77.2983 26.9816L76.6961 26.9593V24.4393L77.2538 24.4839C77.6553 24.4839 77.9896 24.4467 78.2575 24.3724C78.5099 24.298 78.7332 24.1345 78.9262 23.8818C79.0153 23.733 79.0895 23.5695 79.1496 23.3911C79.2238 23.1532 79.2902 22.9154 79.3496 22.6774Z" fill="#E3FFEC"/>
<path d="M87.8679 22.2799V10.3934H90.8338V12.4897L90.9229 12.4451C91.176 11.9545 91.4212 11.553 91.6594 11.2408C91.8821 10.9435 92.1945 10.6758 92.596 10.438C92.9671 10.2001 93.488 10.0812 94.1567 10.0812L94.4691 10.1034L94.759 10.1258V13.3149L93.8895 13.2703C91.9712 13.2703 91.0127 14.2143 91.0127 16.1025V22.2799H87.8679Z" fill="#E3FFEC"/>
</g>
<defs>
<linearGradient id="paint0_linear_5_26" x1="13.5714" y1="16.5" x2="13.5714" y2="32.9606" gradientUnits="userSpaceOnUse">
<stop stop-color="#00FF5D"/>
<stop offset="1" stop-color="#00D54E"/>
</linearGradient>
<radialGradient id="paint1_radial_5_26" cx="0" cy="0" r="1" gradientUnits="userSpaceOnUse" gradientTransform="translate(19.3042 28.3516) rotate(120.043) scale(19.3957 43.7212)">
<stop offset="0.132895" stop-color="white"/>
<stop offset="1" stop-color="white" stop-opacity="0"/>
</radialGradient>
<clipPath id="clip0_5_26">
<rect width="94.7589" height="32.9212" fill="white" transform="translate(0 0.0394287)"/>
</clipPath>
</defs>
</svg>
