<svg width="42" height="45" viewBox="0 0 42 45" fill="none" xmlns="http://www.w3.org/2000/svg">
<g id="icon">
<g id="Vector" filter="url(#filter0_d_80_5382)">
<path d="M19.5858 12L12.9998 18.586C12.7199 18.8657 12.5293 19.2221 12.4521 19.6102C12.3748 19.9982 12.4144 20.4005 12.5658 20.766L12.6338 20.911C12.8015 21.2388 13.0565 21.5139 13.3705 21.706C13.6846 21.8982 14.0456 21.9999 14.4138 22H16.9998V29C16.9998 29.5304 17.2105 30.0391 17.5856 30.4142C17.9607 30.7893 18.4694 31 18.9998 31H22.9998L23.1498 30.995C23.653 30.9572 24.1232 30.7305 24.4663 30.3605C24.8094 29.9906 25 29.5046 24.9998 29L24.9988 22H27.5858C27.9813 21.9999 28.3679 21.8826 28.6967 21.6628C29.0255 21.443 29.2818 21.1307 29.4332 20.7653C29.5845 20.3999 29.6241 19.9978 29.547 19.6099C29.4698 19.222 29.2794 18.8657 28.9998 18.586L22.4138 12C22.0387 11.6251 21.5301 11.4144 20.9998 11.4144C20.4695 11.4144 19.9609 11.6251 19.5858 12Z" fill="url(#paint0_linear_80_5382)"/>
<path d="M19.5858 12L12.9998 18.586C12.7199 18.8657 12.5293 19.2221 12.4521 19.6102C12.3748 19.9982 12.4144 20.4005 12.5658 20.766L12.6338 20.911C12.8015 21.2388 13.0565 21.5139 13.3705 21.706C13.6846 21.8982 14.0456 21.9999 14.4138 22H16.9998V29C16.9998 29.5304 17.2105 30.0391 17.5856 30.4142C17.9607 30.7893 18.4694 31 18.9998 31H22.9998L23.1498 30.995C23.653 30.9572 24.1232 30.7305 24.4663 30.3605C24.8094 29.9906 25 29.5046 24.9998 29L24.9988 22H27.5858C27.9813 21.9999 28.3679 21.8826 28.6967 21.6628C29.0255 21.443 29.2818 21.1307 29.4332 20.7653C29.5845 20.3999 29.6241 19.9978 29.547 19.6099C29.4698 19.222 29.2794 18.8657 28.9998 18.586L22.4138 12C22.0387 11.6251 21.5301 11.4144 20.9998 11.4144C20.4695 11.4144 19.9609 11.6251 19.5858 12Z" fill="url(#paint1_radial_80_5382)" fill-opacity="0.5" style="mix-blend-mode:overlay"/>
</g>
</g>
<defs>
<filter id="filter0_d_80_5382" x="0.113574" y="0.114429" width="41.7719" height="44.1856" filterUnits="userSpaceOnUse" color-interpolation-filters="sRGB">
<feFlood flood-opacity="0" result="BackgroundImageFix"/>
<feColorMatrix in="SourceAlpha" type="matrix" values="0 0 0 0 0 0 0 0 0 0 0 0 0 0 0 0 0 0 127 0" result="hardAlpha"/>
<feOffset dy="1"/>
<feGaussianBlur stdDeviation="6.15"/>
<feComposite in2="hardAlpha" operator="out"/>
<feColorMatrix type="matrix" values="0 0 0 0 0.442431 0 0 0 0 0.958333 0 0 0 0 0.415278 0 0 0 0.24 0"/>
<feBlend mode="normal" in2="BackgroundImageFix" result="effect1_dropShadow_80_5382"/>
<feBlend mode="normal" in="SourceGraphic" in2="effect1_dropShadow_80_5382" result="shape"/>
</filter>
<linearGradient id="paint0_linear_80_5382" x1="20.9995" y1="21.2072" x2="20.9995" y2="31" gradientUnits="userSpaceOnUse">
<stop stop-color="#00FF5D"/>
<stop offset="1" stop-color="#00D54E"/>
</linearGradient>
<radialGradient id="paint1_radial_80_5382" cx="0" cy="0" r="1" gradientUnits="userSpaceOnUse" gradientTransform="translate(24.6263 28.258) rotate(121.593) scale(11.7266 27.2173)">
<stop offset="0.132895" stop-color="white"/>
<stop offset="1" stop-color="white" stop-opacity="0"/>
</radialGradient>
</defs>
</svg>
