<svg width="45" height="46" viewBox="0 0 45 46" fill="none" xmlns="http://www.w3.org/2000/svg">
<g id="icon">
<g id="Vector" filter="url(#filter0_d_80_5387)">
<path d="M22.5504 12.007L22.6644 12L22.7824 12.007L22.8414 12.015L22.9024 12.028L23.0134 12.062C23.09 12.0903 23.1629 12.1279 23.2304 12.174L23.3344 12.256L23.5894 12.474C25.6067 14.1496 28.1563 15.0493 30.7784 15.011L31.1204 15.001C31.344 14.9908 31.5645 15.0559 31.7467 15.1859C31.929 15.3159 32.0623 15.5033 32.1254 15.718C32.6168 17.3896 32.7672 19.1429 32.5676 20.8737C32.368 22.6046 31.8225 24.2776 30.9635 25.7935C30.1046 27.3093 28.9497 28.6371 27.5675 29.6978C26.1852 30.7585 24.6039 31.5305 22.9174 31.968C22.7528 32.0107 22.58 32.0107 22.4154 31.968C20.7288 31.5306 19.1474 30.7587 17.765 29.698C16.3827 28.6374 15.2277 27.3096 14.3686 25.7938C13.5096 24.2779 12.964 22.6048 12.7643 20.8739C12.5647 19.143 12.715 17.3896 13.2064 15.718C13.2695 15.5033 13.4028 15.3159 13.585 15.1859C13.7673 15.0559 13.9878 14.9908 14.2114 15.001C16.9489 15.1261 19.6345 14.225 21.7424 12.474L22.0054 12.249L22.1014 12.174C22.1689 12.1279 22.2418 12.0903 22.3184 12.062L22.4304 12.028C22.4696 12.0186 22.5103 12.0116 22.5504 12.007Z" fill="url(#paint0_linear_80_5387)"/>
<path d="M22.5504 12.007L22.6644 12L22.7824 12.007L22.8414 12.015L22.9024 12.028L23.0134 12.062C23.09 12.0903 23.1629 12.1279 23.2304 12.174L23.3344 12.256L23.5894 12.474C25.6067 14.1496 28.1563 15.0493 30.7784 15.011L31.1204 15.001C31.344 14.9908 31.5645 15.0559 31.7467 15.1859C31.929 15.3159 32.0623 15.5033 32.1254 15.718C32.6168 17.3896 32.7672 19.1429 32.5676 20.8737C32.368 22.6046 31.8225 24.2776 30.9635 25.7935C30.1046 27.3093 28.9497 28.6371 27.5675 29.6978C26.1852 30.7585 24.6039 31.5305 22.9174 31.968C22.7528 32.0107 22.58 32.0107 22.4154 31.968C20.7288 31.5306 19.1474 30.7587 17.765 29.698C16.3827 28.6374 15.2277 27.3096 14.3686 25.7938C13.5096 24.2779 12.964 22.6048 12.7643 20.8739C12.5647 19.143 12.715 17.3896 13.2064 15.718C13.2695 15.5033 13.4028 15.3159 13.585 15.1859C13.7673 15.0559 13.9878 14.9908 14.2114 15.001C16.9489 15.1261 19.6345 14.225 21.7424 12.474L22.0054 12.249L22.1014 12.174C22.1689 12.1279 22.2418 12.0903 22.3184 12.062L22.4304 12.028C22.4696 12.0186 22.5103 12.0116 22.5504 12.007Z" fill="url(#paint1_radial_80_5387)" fill-opacity="0.5" style="mix-blend-mode:overlay"/>
</g>
</g>
<defs>
<filter id="filter0_d_80_5387" x="0.378711" y="0.7" width="44.5746" height="44.6" filterUnits="userSpaceOnUse" color-interpolation-filters="sRGB">
<feFlood flood-opacity="0" result="BackgroundImageFix"/>
<feColorMatrix in="SourceAlpha" type="matrix" values="0 0 0 0 0 0 0 0 0 0 0 0 0 0 0 0 0 0 127 0" result="hardAlpha"/>
<feOffset dy="1"/>
<feGaussianBlur stdDeviation="6.15"/>
<feComposite in2="hardAlpha" operator="out"/>
<feColorMatrix type="matrix" values="0 0 0 0 0.442431 0 0 0 0 0.958333 0 0 0 0 0.415278 0 0 0 0.24 0"/>
<feBlend mode="normal" in2="BackgroundImageFix" result="effect1_dropShadow_80_5387"/>
<feBlend mode="normal" in="SourceGraphic" in2="effect1_dropShadow_80_5387" result="shape"/>
</filter>
<linearGradient id="paint0_linear_80_5387" x1="22.6659" y1="22" x2="22.6659" y2="32" gradientUnits="userSpaceOnUse">
<stop stop-color="#00FF5D"/>
<stop offset="1" stop-color="#00D54E"/>
</linearGradient>
<radialGradient id="paint1_radial_80_5387" cx="0" cy="0" r="1" gradientUnits="userSpaceOnUse" gradientTransform="translate(26.8847 29.2) rotate(125.015) scale(12.4542 30.4409)">
<stop offset="0.132895" stop-color="white"/>
<stop offset="1" stop-color="white" stop-opacity="0"/>
</radialGradient>
</defs>
</svg>
