<svg width="43" height="44" viewBox="0 0 43 44" fill="none" xmlns="http://www.w3.org/2000/svg">
<g id="Group">
<g id="Vector" filter="url(#filter0_d_185_1573)">
<path fill-rule="evenodd" clip-rule="evenodd" d="M27.3335 13C27.3335 12.7348 27.2281 12.4804 27.0406 12.2929C26.8531 12.1054 26.5987 12 26.3335 12C26.0683 12 25.8139 12.1054 25.6264 12.2929C25.4389 12.4804 25.3335 12.7348 25.3335 13V14H13.3335C13.0683 14 12.8139 14.1054 12.6264 14.2929C12.4389 14.4804 12.3335 14.7348 12.3335 15C12.3335 15.2652 12.4389 15.5196 12.6264 15.7071C12.8139 15.8946 13.0683 16 13.3335 16H25.3335V17C25.3335 17.2652 25.4389 17.5196 25.6264 17.7071C25.8139 17.8946 26.0683 18 26.3335 18C26.5987 18 26.8531 17.8946 27.0406 17.7071C27.2281 17.5196 27.3335 17.2652 27.3335 17V16H29.3335C29.5987 16 29.8531 15.8946 30.0406 15.7071C30.2281 15.5196 30.3335 15.2652 30.3335 15C30.3335 14.7348 30.2281 14.4804 30.0406 14.2929C29.8531 14.1054 29.5987 14 29.3335 14H27.3335V13ZM13.3335 20C13.0683 20 12.8139 20.1054 12.6264 20.2929C12.4389 20.4804 12.3335 20.7348 12.3335 21C12.3335 21.2652 12.4389 21.5196 12.6264 21.7071C12.8139 21.8946 13.0683 22 13.3335 22H15.3335V23C15.3335 23.2652 15.4389 23.5196 15.6264 23.7071C15.8139 23.8946 16.0683 24 16.3335 24C16.5987 24 16.8531 23.8946 17.0406 23.7071C17.2281 23.5196 17.3335 23.2652 17.3335 23V22H29.3335C29.5987 22 29.8531 21.8946 30.0406 21.7071C30.2281 21.5196 30.3335 21.2652 30.3335 21C30.3335 20.7348 30.2281 20.4804 30.0406 20.2929C29.8531 20.1054 29.5987 20 29.3335 20H17.3335V19C17.3335 18.7348 17.2281 18.4804 17.0406 18.2929C16.8531 18.1054 16.5987 18 16.3335 18C16.0683 18 15.8139 18.1054 15.6264 18.2929C15.4389 18.4804 15.3335 18.7348 15.3335 19V20H13.3335ZM12.3335 27C12.3335 26.7348 12.4389 26.4804 12.6264 26.2929C12.8139 26.1054 13.0683 26 13.3335 26H25.3335V25C25.3335 24.7348 25.4389 24.4804 25.6264 24.2929C25.8139 24.1054 26.0683 24 26.3335 24C26.5987 24 26.8531 24.1054 27.0406 24.2929C27.2281 24.4804 27.3335 24.7348 27.3335 25V26H29.3335C29.5987 26 29.8531 26.1054 30.0406 26.2929C30.2281 26.4804 30.3335 26.7348 30.3335 27C30.3335 27.2652 30.2281 27.5196 30.0406 27.7071C29.8531 27.8946 29.5987 28 29.3335 28H27.3335V29C27.3335 29.2652 27.2281 29.5196 27.0406 29.7071C26.8531 29.8946 26.5987 30 26.3335 30C26.0683 30 25.8139 29.8946 25.6264 29.7071C25.4389 29.5196 25.3335 29.2652 25.3335 29V28H13.3335C13.0683 28 12.8139 27.8946 12.6264 27.7071C12.4389 27.5196 12.3335 27.2652 12.3335 27Z" fill="url(#paint0_linear_185_1573)"/>
<path fill-rule="evenodd" clip-rule="evenodd" d="M27.3335 13C27.3335 12.7348 27.2281 12.4804 27.0406 12.2929C26.8531 12.1054 26.5987 12 26.3335 12C26.0683 12 25.8139 12.1054 25.6264 12.2929C25.4389 12.4804 25.3335 12.7348 25.3335 13V14H13.3335C13.0683 14 12.8139 14.1054 12.6264 14.2929C12.4389 14.4804 12.3335 14.7348 12.3335 15C12.3335 15.2652 12.4389 15.5196 12.6264 15.7071C12.8139 15.8946 13.0683 16 13.3335 16H25.3335V17C25.3335 17.2652 25.4389 17.5196 25.6264 17.7071C25.8139 17.8946 26.0683 18 26.3335 18C26.5987 18 26.8531 17.8946 27.0406 17.7071C27.2281 17.5196 27.3335 17.2652 27.3335 17V16H29.3335C29.5987 16 29.8531 15.8946 30.0406 15.7071C30.2281 15.5196 30.3335 15.2652 30.3335 15C30.3335 14.7348 30.2281 14.4804 30.0406 14.2929C29.8531 14.1054 29.5987 14 29.3335 14H27.3335V13ZM13.3335 20C13.0683 20 12.8139 20.1054 12.6264 20.2929C12.4389 20.4804 12.3335 20.7348 12.3335 21C12.3335 21.2652 12.4389 21.5196 12.6264 21.7071C12.8139 21.8946 13.0683 22 13.3335 22H15.3335V23C15.3335 23.2652 15.4389 23.5196 15.6264 23.7071C15.8139 23.8946 16.0683 24 16.3335 24C16.5987 24 16.8531 23.8946 17.0406 23.7071C17.2281 23.5196 17.3335 23.2652 17.3335 23V22H29.3335C29.5987 22 29.8531 21.8946 30.0406 21.7071C30.2281 21.5196 30.3335 21.2652 30.3335 21C30.3335 20.7348 30.2281 20.4804 30.0406 20.2929C29.8531 20.1054 29.5987 20 29.3335 20H17.3335V19C17.3335 18.7348 17.2281 18.4804 17.0406 18.2929C16.8531 18.1054 16.5987 18 16.3335 18C16.0683 18 15.8139 18.1054 15.6264 18.2929C15.4389 18.4804 15.3335 18.7348 15.3335 19V20H13.3335ZM12.3335 27C12.3335 26.7348 12.4389 26.4804 12.6264 26.2929C12.8139 26.1054 13.0683 26 13.3335 26H25.3335V25C25.3335 24.7348 25.4389 24.4804 25.6264 24.2929C25.8139 24.1054 26.0683 24 26.3335 24C26.5987 24 26.8531 24.1054 27.0406 24.2929C27.2281 24.4804 27.3335 24.7348 27.3335 25V26H29.3335C29.5987 26 29.8531 26.1054 30.0406 26.2929C30.2281 26.4804 30.3335 26.7348 30.3335 27C30.3335 27.2652 30.2281 27.5196 30.0406 27.7071C29.8531 27.8946 29.5987 28 29.3335 28H27.3335V29C27.3335 29.2652 27.2281 29.5196 27.0406 29.7071C26.8531 29.8946 26.5987 30 26.3335 30C26.0683 30 25.8139 29.8946 25.6264 29.7071C25.4389 29.5196 25.3335 29.2652 25.3335 29V28H13.3335C13.0683 28 12.8139 27.8946 12.6264 27.7071C12.4389 27.5196 12.3335 27.2652 12.3335 27Z" fill="url(#paint1_radial_185_1573)" fill-opacity="0.5" style="mix-blend-mode:overlay"/>
</g>
</g>
<defs>
<filter id="filter0_d_185_1573" x="0.0334959" y="0.7" width="42.6" height="42.6" filterUnits="userSpaceOnUse" color-interpolation-filters="sRGB">
<feFlood flood-opacity="0" result="BackgroundImageFix"/>
<feColorMatrix in="SourceAlpha" type="matrix" values="0 0 0 0 0 0 0 0 0 0 0 0 0 0 0 0 0 0 127 0" result="hardAlpha"/>
<feOffset dy="1"/>
<feGaussianBlur stdDeviation="6.15"/>
<feComposite in2="hardAlpha" operator="out"/>
<feColorMatrix type="matrix" values="0 0 0 0 0.442431 0 0 0 0 0.958333 0 0 0 0 0.415278 0 0 0 0.24 0"/>
<feBlend mode="normal" in2="BackgroundImageFix" result="effect1_dropShadow_185_1573"/>
<feBlend mode="normal" in="SourceGraphic" in2="effect1_dropShadow_185_1573" result="shape"/>
</filter>
<linearGradient id="paint0_linear_185_1573" x1="21.3335" y1="21" x2="21.3335" y2="30" gradientUnits="userSpaceOnUse">
<stop stop-color="#00FF5D"/>
<stop offset="1" stop-color="#00D54E"/>
</linearGradient>
<radialGradient id="paint1_radial_185_1573" cx="0" cy="0" r="1" gradientUnits="userSpaceOnUse" gradientTransform="translate(25.1352 27.48) rotate(125.049) scale(11.2135 27.4203)">
<stop offset="0.132895" stop-color="white"/>
<stop offset="1" stop-color="white" stop-opacity="0"/>
</radialGradient>
</defs>
</svg>
