<svg width="16" height="16" viewBox="0 0 16 16" fill="none" xmlns="http://www.w3.org/2000/svg">
<g id="ri:ram-fill">
<path id="Vector" d="M1.33329 3.33334C1.15648 3.33334 0.986912 3.40358 0.861888 3.52861C0.736864 3.65363 0.666626 3.8232 0.666626 4.00001V12C0.666626 12.1768 0.736864 12.3464 0.861888 12.4714C0.986912 12.5964 1.15648 12.6667 1.33329 12.6667H3.33329V11.3333H4.66663V12.6667H5.99996V11.3333H7.33329V12.6667H8.66663V11.3333H9.99996V12.6667H11.3333V11.3333H12.6666V12.6667H14.6666C14.8434 12.6667 15.013 12.5964 15.138 12.4714C15.2631 12.3464 15.3333 12.1768 15.3333 12V4.00001C15.3333 3.8232 15.2631 3.65363 15.138 3.52861C15.013 3.40358 14.8434 3.33334 14.6666 3.33334H1.33329ZM3.33329 6.00001H7.33329V8.00001H3.33329V6.00001ZM8.66663 6.00001H12.6666V8.00001H8.66663V6.00001Z" fill="#D8FFEE" fill-opacity="0.65"/>
</g>
</svg>
