<svg width="16" height="14" viewBox="0 0 16 14" fill="none" xmlns="http://www.w3.org/2000/svg">
<g id="fa-solid:users">
<path id="Vector" d="M2.4 6.20001C3.2825 6.20001 4 5.48251 4 4.60001C4 3.71751 3.2825 3.00001 2.4 3.00001C1.5175 3.00001 0.8 3.71751 0.8 4.60001C0.8 5.48251 1.5175 6.20001 2.4 6.20001ZM13.6 6.20001C14.4825 6.20001 15.2 5.48251 15.2 4.60001C15.2 3.71751 14.4825 3.00001 13.6 3.00001C12.7175 3.00001 12 3.71751 12 4.60001C12 5.48251 12.7175 6.20001 13.6 6.20001ZM14.4 7.00001H12.8C12.36 7.00001 11.9625 7.17751 11.6725 7.46501C12.68 8.01751 13.395 9.01501 13.55 10.2H15.2C15.6425 10.2 16 9.84251 16 9.40001V8.60001C16 7.71751 15.2825 7.00001 14.4 7.00001ZM8 7.00001C9.5475 7.00001 10.8 5.74751 10.8 4.20001C10.8 2.65251 9.5475 1.40001 8 1.40001C6.4525 1.40001 5.2 2.65251 5.2 4.20001C5.2 5.74751 6.4525 7.00001 8 7.00001ZM9.92 7.80001H9.7125C9.1925 8.05001 8.615 8.20001 8 8.20001C7.385 8.20001 6.81 8.05001 6.2875 7.80001H6.08C4.49 7.80001 3.2 9.09001 3.2 10.68V11.4C3.2 12.0625 3.7375 12.6 4.4 12.6H11.6C12.2625 12.6 12.8 12.0625 12.8 11.4V10.68C12.8 9.09001 11.51 7.80001 9.92 7.80001ZM4.3275 7.46501C4.0375 7.17751 3.64 7.00001 3.2 7.00001H1.6C0.7175 7.00001 0 7.71751 0 8.60001V9.40001C0 9.84251 0.3575 10.2 0.8 10.2H2.4475C2.605 9.01501 3.32 8.01751 4.3275 7.46501Z" fill="#D8FFEE" fill-opacity="0.65"/>
</g>
</svg>
