<svg width="16" height="16" viewBox="0 0 16 16" fill="none" xmlns="http://www.w3.org/2000/svg">
<g id="eos-icons:patch-fixes">
<path id="Vector" d="M9.65331 12.4733C9.16479 12.6689 8.62929 12.7154 8.11437 12.6069C7.59945 12.4985 7.12818 12.24 6.76 11.8641C6.39182 11.4881 6.14323 11.0115 6.04558 10.4945C5.94793 9.97741 6.0056 9.443 6.21131 8.95866L7.95731 10.7047L9.37065 9.29066L7.62531 7.54466C8.11764 7.33466 8.66189 7.27814 9.18686 7.3825C9.71183 7.48687 10.1931 7.74725 10.5676 8.1296C10.9422 8.51194 11.1926 8.99844 11.2862 9.52545C11.3798 10.0525 11.3121 10.5954 11.092 11.0833L12.3806 12.372C13.0018 11.4805 13.3343 10.4199 13.3333 9.33333C13.324 7.62187 12.9296 5.93444 12.1795 4.3961C11.4294 2.85776 10.3427 1.50794 8.99998 0.446663C9.28476 1.49127 9.45026 2.56479 9.49331 3.64666C9.51699 3.96137 9.47603 4.2776 9.37294 4.57588C9.26985 4.87417 9.10682 5.1482 8.89387 5.38113C8.68093 5.61406 8.42257 5.80096 8.1347 5.93031C7.84684 6.05967 7.53554 6.12876 7.21998 6.13333C6.89675 6.13254 6.57694 6.06719 6.27932 5.9411C5.9817 5.81502 5.71227 5.63075 5.48684 5.39911C5.26141 5.16747 5.08453 4.89313 4.96658 4.5922C4.84863 4.29126 4.79199 3.96979 4.79998 3.64666L4.81998 3.40666C3.42493 5.066 2.66212 7.16549 2.66665 9.33333C2.66682 10.2981 2.92867 11.2447 3.4243 12.0724C3.91994 12.9 4.63079 13.5778 5.48115 14.0334C6.33151 14.489 7.28953 14.7055 8.25318 14.6597C9.21682 14.6139 10.15 14.3076 10.9533 13.7733L9.65331 12.4733Z" fill="#D8FFEE" fill-opacity="0.65"/>
</g>
</svg>
