<svg width="16" height="16" viewBox="0 0 16 16" fill="none" xmlns="http://www.w3.org/2000/svg">
<path d="M7.05737 2L2.6667 6.39067C2.48012 6.57713 2.35304 6.81474 2.30154 7.07344C2.25004 7.33214 2.27643 7.6003 2.37737 7.844L2.4227 7.94067C2.53451 8.15918 2.70446 8.3426 2.91385 8.4707C3.12323 8.5988 3.36391 8.66661 3.60937 8.66667H5.33337V13.3333C5.33337 13.687 5.47384 14.0261 5.72389 14.2761C5.97394 14.5262 6.31308 14.6667 6.6667 14.6667H9.33337L9.43337 14.6633C9.7688 14.6381 10.0823 14.487 10.311 14.2404C10.5398 13.9937 10.6668 13.6697 10.6667 13.3333L10.666 8.66667H12.3907C12.6544 8.66661 12.9121 8.58838 13.1313 8.44187C13.3505 8.29536 13.5214 8.08714 13.6223 7.84354C13.7232 7.59994 13.7496 7.3319 13.6981 7.07329C13.6467 6.81469 13.5198 6.57714 13.3334 6.39067L8.9427 2C8.69266 1.75004 8.35358 1.60962 8.00003 1.60962C7.64648 1.60962 7.3074 1.75004 7.05737 2Z" fill="white"/>
</svg>
