<svg width="16" height="16" viewBox="0 0 16 16" fill="none" xmlns="http://www.w3.org/2000/svg">
<path d="M2.6665 3.99992C2.6665 3.82311 2.73674 3.65354 2.86177 3.52851C2.98679 3.40349 3.15636 3.33325 3.33317 3.33325H12.6665C12.8433 3.33325 13.0129 3.40349 13.1379 3.52851C13.2629 3.65354 13.3332 3.82311 13.3332 3.99992C13.3332 4.17673 13.2629 4.3463 13.1379 4.47132C13.0129 4.59635 12.8433 4.66659 12.6665 4.66659H3.33317C3.15636 4.66659 2.98679 4.59635 2.86177 4.47132C2.73674 4.3463 2.6665 4.17673 2.6665 3.99992ZM2.6665 7.99992C2.6665 7.82311 2.73674 7.65354 2.86177 7.52851C2.98679 7.40349 3.15636 7.33325 3.33317 7.33325H12.6665C12.8433 7.33325 13.0129 7.40349 13.1379 7.52851C13.2629 7.65354 13.3332 7.82311 13.3332 7.99992C13.3332 8.17673 13.2629 8.3463 13.1379 8.47132C13.0129 8.59635 12.8433 8.66658 12.6665 8.66658H3.33317C3.15636 8.66658 2.98679 8.59635 2.86177 8.47132C2.73674 8.3463 2.6665 8.17673 2.6665 7.99992ZM3.33317 11.3333C3.15636 11.3333 2.98679 11.4035 2.86177 11.5285C2.73674 11.6535 2.6665 11.8231 2.6665 11.9999C2.6665 12.1767 2.73674 12.3463 2.86177 12.4713C2.98679 12.5963 3.15636 12.6666 3.33317 12.6666H12.6665C12.8433 12.6666 13.0129 12.5963 13.1379 12.4713C13.2629 12.3463 13.3332 12.1767 13.3332 11.9999C13.3332 11.8231 13.2629 11.6535 13.1379 11.5285C13.0129 11.4035 12.8433 11.3333 12.6665 11.3333H3.33317Z" fill="white"/>
</svg>
