<svg width="16" height="16" viewBox="0 0 16 16" fill="none" xmlns="http://www.w3.org/2000/svg">
<path fill-rule="evenodd" clip-rule="evenodd" d="M12 2.66667C12 2.48986 11.9298 2.32029 11.8047 2.19526C11.6797 2.07024 11.5101 2 11.3333 2C11.1565 2 10.987 2.07024 10.8619 2.19526C10.7369 2.32029 10.6667 2.48986 10.6667 2.66667V3.33333H2.66667C2.48986 3.33333 2.32029 3.40357 2.19526 3.5286C2.07024 3.65362 2 3.82319 2 4C2 4.17681 2.07024 4.34638 2.19526 4.4714C2.32029 4.59643 2.48986 4.66667 2.66667 4.66667H10.6667V5.33333C10.6667 5.51014 10.7369 5.67971 10.8619 5.80474C10.987 5.92976 11.1565 6 11.3333 6C11.5101 6 11.6797 5.92976 11.8047 5.80474C11.9298 5.67971 12 5.51014 12 5.33333V4.66667H13.3333C13.5101 4.66667 13.6797 4.59643 13.8047 4.4714C13.9298 4.34638 14 4.17681 14 4C14 3.82319 13.9298 3.65362 13.8047 3.5286C13.6797 3.40357 13.5101 3.33333 13.3333 3.33333H12V2.66667ZM2.66667 7.33333C2.48986 7.33333 2.32029 7.40357 2.19526 7.5286C2.07024 7.65362 2 7.82319 2 8C2 8.17681 2.07024 8.34638 2.19526 8.4714C2.32029 8.59643 2.48986 8.66667 2.66667 8.66667H4V9.33333C4 9.51014 4.07024 9.67971 4.19526 9.80474C4.32029 9.92976 4.48986 10 4.66667 10C4.84348 10 5.01305 9.92976 5.13807 9.80474C5.2631 9.67971 5.33333 9.51014 5.33333 9.33333V8.66667H13.3333C13.5101 8.66667 13.6797 8.59643 13.8047 8.4714C13.9298 8.34638 14 8.17681 14 8C14 7.82319 13.9298 7.65362 13.8047 7.5286C13.6797 7.40357 13.5101 7.33333 13.3333 7.33333H5.33333V6.66667C5.33333 6.48986 5.2631 6.32029 5.13807 6.19526C5.01305 6.07024 4.84348 6 4.66667 6C4.48986 6 4.32029 6.07024 4.19526 6.19526C4.07024 6.32029 4 6.48986 4 6.66667V7.33333H2.66667ZM2 12C2 11.8232 2.07024 11.6536 2.19526 11.5286C2.32029 11.4036 2.48986 11.3333 2.66667 11.3333H10.6667V10.6667C10.6667 10.4899 10.7369 10.3203 10.8619 10.1953C10.987 10.0702 11.1565 10 11.3333 10C11.5101 10 11.6797 10.0702 11.8047 10.1953C11.9298 10.3203 12 10.4899 12 10.6667V11.3333H13.3333C13.5101 11.3333 13.6797 11.4036 13.8047 11.5286C13.9298 11.6536 14 11.8232 14 12C14 12.1768 13.9298 12.3464 13.8047 12.4714C13.6797 12.5964 13.5101 12.6667 13.3333 12.6667H12V13.3333C12 13.5101 11.9298 13.6797 11.8047 13.8047C11.6797 13.9298 11.5101 14 11.3333 14C11.1565 14 10.987 13.9298 10.8619 13.8047C10.7369 13.6797 10.6667 13.5101 10.6667 13.3333V12.6667H2.66667C2.48986 12.6667 2.32029 12.5964 2.19526 12.4714C2.07024 12.3464 2 12.1768 2 12Z" fill="white"/>
</svg>
