<svg width="32" height="32" viewBox="0 0 32 32" fill="none" xmlns="http://www.w3.org/2000/svg">
<g id="icon">
<g id="Vector">
<path d="M17.9907 4.87866C18.037 4.52726 17.97 4.17026 17.7995 3.85952C17.6291 3.54877 17.364 3.30047 17.0427 3.15066C16.7124 2.99564 16.3388 2.95872 15.9844 3.04609C15.6301 3.13346 15.3165 3.33982 15.0961 3.63066L4.69073 16.9813C4.50187 17.2245 4.38233 17.5143 4.34477 17.8199C4.30722 18.1255 4.35304 18.4356 4.4774 18.7173C4.70673 19.2413 5.2374 19.7053 5.9654 19.7053H14.8747L14.0081 27.1213C13.9618 27.4727 14.0288 27.8297 14.1993 28.1405C14.3697 28.4512 14.6348 28.6995 14.9561 28.8493C15.2864 29.0044 15.66 29.0413 16.0144 28.9539C16.3687 28.8665 16.6823 28.6602 16.9027 28.3693L27.3067 15.0187C27.4956 14.7755 27.6151 14.4857 27.6527 14.1801C27.6903 13.8744 27.6444 13.5644 27.5201 13.2827C27.3955 12.9908 27.1882 12.7417 26.9238 12.5662C26.6594 12.3906 26.3494 12.2962 26.0321 12.2947H17.1227L17.9907 4.87866Z" fill="url(#paint0_linear_80_5406)"/>
<path d="M17.9907 4.87866C18.037 4.52726 17.97 4.17026 17.7995 3.85952C17.6291 3.54877 17.364 3.30047 17.0427 3.15066C16.7124 2.99564 16.3388 2.95872 15.9844 3.04609C15.6301 3.13346 15.3165 3.33982 15.0961 3.63066L4.69073 16.9813C4.50187 17.2245 4.38233 17.5143 4.34477 17.8199C4.30722 18.1255 4.35304 18.4356 4.4774 18.7173C4.70673 19.2413 5.2374 19.7053 5.9654 19.7053H14.8747L14.0081 27.1213C13.9618 27.4727 14.0288 27.8297 14.1993 28.1405C14.3697 28.4512 14.6348 28.6995 14.9561 28.8493C15.2864 29.0044 15.66 29.0413 16.0144 28.9539C16.3687 28.8665 16.6823 28.6602 16.9027 28.3693L27.3067 15.0187C27.4956 14.7755 27.6151 14.4857 27.6527 14.1801C27.6903 13.8744 27.6444 13.5644 27.5201 13.2827C27.3955 12.9908 27.1882 12.7417 26.9238 12.5662C26.6594 12.3906 26.3494 12.2962 26.0321 12.2947H17.1227L17.9907 4.87866Z" fill="url(#paint1_radial_80_5406)" fill-opacity="0.5" style="mix-blend-mode:overlay"/>
</g>
</g>
<defs>
<linearGradient id="paint0_linear_80_5406" x1="15.9987" y1="16" x2="15.9987" y2="29.0002" gradientUnits="userSpaceOnUse">
<stop stop-color="#00FF5D"/>
<stop offset="1" stop-color="#00D54E"/>
</linearGradient>
<radialGradient id="paint1_radial_80_5406" cx="0" cy="0" r="1" gradientUnits="userSpaceOnUse" gradientTransform="translate(20.9269 25.3602) rotate(122.192) scale(15.669 36.7437)">
<stop offset="0.132895" stop-color="white"/>
<stop offset="1" stop-color="white" stop-opacity="0"/>
</radialGradient>
</defs>
</svg>
