<svg width="16" height="16" viewBox="0 0 16 16" fill="none" xmlns="http://www.w3.org/2000/svg">
<path d="M8.99537 2.43945C9.01849 2.26375 8.98501 2.08525 8.89977 1.92988C8.81453 1.77451 8.68198 1.65036 8.52137 1.57545C8.35618 1.49794 8.16938 1.47948 7.99222 1.52317C7.81505 1.56685 7.65825 1.67003 7.54803 1.81545L2.34537 8.49079C2.25094 8.61239 2.19117 8.75727 2.17239 8.91008C2.15361 9.0629 2.17652 9.21794 2.2387 9.35879C2.35337 9.62079 2.6187 9.85279 2.9827 9.85279H7.43737L7.00403 13.5608C6.9809 13.7365 7.01439 13.915 7.09963 14.0704C7.18487 14.2257 7.31742 14.3499 7.47803 14.4248C7.64322 14.5023 7.83002 14.5208 8.00718 14.4771C8.18435 14.4334 8.34115 14.3302 8.45137 14.1848L13.6534 7.50945C13.7478 7.38785 13.8076 7.24297 13.8263 7.09016C13.8451 6.93735 13.8222 6.7823 13.76 6.64145C13.6977 6.49551 13.5941 6.37098 13.4619 6.2832C13.3297 6.19543 13.1747 6.14824 13.016 6.14745H8.56137L8.99537 2.43945Z" fill="white"/>
</svg>
