<svg width="16" height="17" viewBox="0 0 16 17" fill="none" xmlns="http://www.w3.org/2000/svg">
<g id="icon">
<path id="Vector" d="M9.03063 9.03063L6.53062 11.5306C6.38973 11.6715 6.19863 11.7507 5.99937 11.7507C5.80012 11.7507 5.60902 11.6715 5.46812 11.5306C5.32723 11.3897 5.24807 11.1986 5.24807 10.9994C5.24807 10.8001 5.32723 10.609 5.46812 10.4681L6.6875 9.25H1.5C1.30109 9.25 1.11032 9.17098 0.96967 9.03033C0.829018 8.88968 0.75 8.69891 0.75 8.5C0.75 8.30109 0.829018 8.11032 0.96967 7.96967C1.11032 7.82902 1.30109 7.75 1.5 7.75H6.6875L5.46938 6.53062C5.39961 6.46086 5.34427 6.37804 5.30651 6.28689C5.26876 6.19573 5.24932 6.09804 5.24932 5.99937C5.24932 5.80012 5.32848 5.60902 5.46938 5.46812C5.61027 5.32723 5.80137 5.24807 6.00063 5.24807C6.19988 5.24807 6.39098 5.32723 6.53188 5.46812L9.03187 7.96812C9.10171 8.03788 9.15709 8.12074 9.19484 8.21195C9.23259 8.30316 9.25196 8.40092 9.25184 8.49963C9.25173 8.59835 9.23212 8.69606 9.19416 8.78718C9.1562 8.8783 9.10063 8.96103 9.03063 9.03063ZM12.5 2.25H8.5C8.30109 2.25 8.11032 2.32902 7.96967 2.46967C7.82902 2.61032 7.75 2.80109 7.75 3C7.75 3.19891 7.82902 3.38968 7.96967 3.53033C8.11032 3.67098 8.30109 3.75 8.5 3.75H11.75V13.25H8.5C8.30109 13.25 8.11032 13.329 7.96967 13.4697C7.82902 13.6103 7.75 13.8011 7.75 14C7.75 14.1989 7.82902 14.3897 7.96967 14.5303C8.11032 14.671 8.30109 14.75 8.5 14.75H12.5C12.6989 14.75 12.8897 14.671 13.0303 14.5303C13.171 14.3897 13.25 14.1989 13.25 14V3C13.25 2.80109 13.171 2.61032 13.0303 2.46967C12.8897 2.32902 12.6989 2.25 12.5 2.25Z" fill="url(#paint0_linear_5_3839)"/>
</g>
<defs>
<linearGradient id="paint0_linear_5_3839" x1="7" y1="8.5" x2="7" y2="14.75" gradientUnits="userSpaceOnUse">
<stop stop-color="#252525"/>
<stop offset="1" stop-color="#144722"/>
</linearGradient>
</defs>
</svg>
