<svg width="16" height="16" viewBox="0 0 16 16" fill="none" xmlns="http://www.w3.org/2000/svg">
<path fill-rule="evenodd" clip-rule="evenodd" d="M7.33314 1.30005C4.00102 1.30005 1.2998 4.00126 1.2998 7.33338C1.2998 10.6655 4.00102 13.3667 7.33314 13.3667C8.74699 13.3667 10.0472 12.8804 11.0758 12.0659L13.5049 14.495C13.7782 14.7684 14.2214 14.7684 14.4948 14.495C14.7682 14.2216 14.7682 13.7784 14.4948 13.505L12.0657 11.0759C12.8802 10.0474 13.3665 8.7472 13.3665 7.33338C13.3665 4.00126 10.6653 1.30005 7.33314 1.30005ZM2.6998 7.33338C2.6998 4.77446 4.77422 2.70005 7.33314 2.70005C9.89206 2.70005 11.9665 4.77446 11.9665 7.33338C11.9665 9.8923 9.89206 11.9667 7.33314 11.9667C4.77422 11.9667 2.6998 9.8923 2.6998 7.33338Z" fill="white"/>
</svg>
