<svg width="16" height="16" viewBox="0 0 16 16" fill="none" xmlns="http://www.w3.org/2000/svg">
<path d="M2 3.40018C2 2.07455 4.68637 1 8 1C11.3136 1 14 2.07455 14 3.40018V4.59982C14 5.92545 11.3136 7 8 7C4.68637 7 2 5.92545 2 4.59982V3.40018Z" fill="white"/>
<path d="M2 7V9.1179C2 10.1564 4.68637 11 8 11C11.3136 11 14 10.1571 14 9.11719V7C13.5948 7.22909 13.1538 7.41652 12.6879 7.55771C11.4288 7.95305 9.77021 8.17614 8 8.17614C6.22979 8.17614 4.57207 7.95235 3.31303 7.55771C2.8471 7.41652 2.40613 7.22909 2.0009 7H2Z" fill="white"/>
<path d="M14 11.0009C13.5947 11.3002 13.1538 11.5449 12.6879 11.7293C11.4279 12.2462 9.77021 12.538 7.9991 12.538C6.22979 12.538 4.57117 12.2462 3.31213 11.7293C2.8462 11.5447 2.40523 11.2996 2 11V12.538C2 13.8978 4.68637 15 8 15C11.3136 15 14 13.8978 14 12.538V11.0009Z" fill="white"/>
</svg>
