<svg width="16" height="16" viewBox="0 0 16 16" fill="none" xmlns="http://www.w3.org/2000/svg">
<g id="material-symbols:center-focus-weak">
<path id="Vector" d="M3.33333 14C2.96667 14 2.65289 13.8696 2.392 13.6087C2.13111 13.3478 2.00044 13.0338 2 12.6667V10H3.33333V12.6667H6V14H3.33333ZM10 14V12.6667H12.6667V10H14V12.6667C14 13.0333 13.8696 13.3473 13.6087 13.6087C13.3478 13.87 13.0338 14.0004 12.6667 14H10ZM2 6V3.33333C2 2.96667 2.13067 2.65289 2.392 2.392C2.65333 2.13111 2.96711 2.00044 3.33333 2H6V3.33333H3.33333V6H2ZM12.6667 6V3.33333H10V2H12.6667C13.0333 2 13.3473 2.13067 13.6087 2.392C13.87 2.65333 14.0004 2.96711 14 3.33333V6H12.6667ZM8 10.6667C7.26667 10.6667 6.63889 10.4056 6.11667 9.88333C5.59444 9.36111 5.33333 8.73333 5.33333 8C5.33333 7.26667 5.59444 6.63889 6.11667 6.11667C6.63889 5.59444 7.26667 5.33333 8 5.33333C8.73333 5.33333 9.36111 5.59444 9.88333 6.11667C10.4056 6.63889 10.6667 7.26667 10.6667 8C10.6667 8.73333 10.4056 9.36111 9.88333 9.88333C9.36111 10.4056 8.73333 10.6667 8 10.6667Z" fill="#D8FFEE" fill-opacity="0.65"/>
</g>
</svg>
