<svg width="16" height="16" viewBox="0 0 16 16" fill="none" xmlns="http://www.w3.org/2000/svg">
<g id="tabler:shield-filled">
<path id="Vector" d="M7.92268 1.33798L7.99868 1.33331L8.07734 1.33798L8.11668 1.34331L8.15734 1.35198L8.23134 1.37465C8.28244 1.39353 8.33102 1.41861 8.37601 1.44931L8.44534 1.50398L8.61534 1.64931C9.96022 2.76636 11.6599 3.36618 13.408 3.34065L13.636 3.33398C13.7851 3.32718 13.9321 3.37058 14.0536 3.45725C14.1751 3.54391 14.2639 3.66882 14.306 3.81198C14.6336 4.92636 14.7339 6.09523 14.6008 7.24913C14.4677 8.40302 14.1041 9.51839 13.5314 10.529C12.9588 11.5395 12.1889 12.4247 11.2674 13.1318C10.3459 13.839 9.29167 14.3537 8.16734 14.6453C8.0576 14.6738 7.94242 14.6738 7.83268 14.6453C6.70829 14.3537 5.65399 13.8391 4.73243 13.132C3.81088 12.4249 3.04087 11.5397 2.46816 10.5292C1.89546 9.51857 1.53174 8.40318 1.39864 7.24925C1.26554 6.09532 1.36576 4.92641 1.69334 3.81198C1.73542 3.66882 1.8243 3.54391 1.94578 3.45725C2.06725 3.37058 2.21428 3.32718 2.36334 3.33398C4.18832 3.4174 5.97872 2.81664 7.38401 1.64931L7.55934 1.49931L7.62334 1.44931C7.66834 1.41861 7.71692 1.39353 7.76801 1.37465L7.84268 1.35198C7.86882 1.34572 7.89598 1.34104 7.92268 1.33798Z" fill="#D8FFEE" fill-opacity="0.65"/>
</g>
</svg>
