<svg width="16" height="16" viewBox="0 0 16 16" fill="none" xmlns="http://www.w3.org/2000/svg">
<g id="clarity:hard-disk-solid" clip-path="url(#clip0_69_1820)">
<path id="Vector" d="M13.7156 3.74667C13.6609 3.56286 13.5483 3.40166 13.3945 3.28711C13.2407 3.17257 13.054 3.11083 12.8623 3.11112H3.13782C2.94301 3.11097 2.75354 3.17483 2.59856 3.29287C2.44358 3.41091 2.33167 3.5766 2.28004 3.76445L1.01782 8.88889H14.9823L13.7156 3.74667Z" fill="#D8FFEE" fill-opacity="0.65"/>
<path id="Vector_2" d="M0.888916 9.77777V12.8889C0.888916 13.1246 0.982567 13.3507 1.14927 13.5174C1.31596 13.6841 1.54206 13.7778 1.7778 13.7778H14.2222C14.458 13.7778 14.6841 13.6841 14.8508 13.5174C15.0175 13.3507 15.1111 13.1246 15.1111 12.8889V9.77777H0.888916ZM13.3334 12H11.5556V11.1111H13.3334V12Z" fill="#D8FFEE" fill-opacity="0.65"/>
</g>
<defs>
<clipPath id="clip0_69_1820">
<rect width="16" height="16" fill="white"/>
</clipPath>
</defs>
</svg>
