<svg width="16" height="16" viewBox="0 0 16 16" fill="none" xmlns="http://www.w3.org/2000/svg">
<g id="solar:cpu-bold">
<path id="Vector" d="M6.12062 6.78734C6.15595 6.752 6.21929 6.708 6.42062 6.68067C6.63595 6.652 6.92795 6.65134 7.37995 6.65134H8.61995C9.07195 6.65134 9.36395 6.652 9.57862 6.68134C9.78062 6.708 9.84395 6.752 9.87862 6.788C9.91462 6.82267 9.95862 6.886 9.98529 7.088C10.0146 7.30267 10.0153 7.59467 10.0153 8.04667V9.28667C10.0153 9.73867 10.0146 10.0307 9.98529 10.2453C9.95862 10.4473 9.91462 10.5107 9.87862 10.5453C9.84395 10.5813 9.78062 10.6253 9.57862 10.652C9.36395 10.6813 9.07195 10.682 8.61995 10.682H7.37995C6.92795 10.682 6.63595 10.6813 6.42129 10.652C6.21929 10.6253 6.15595 10.5813 6.12129 10.5453C6.08529 10.5107 6.04129 10.4473 6.01462 10.2453C5.98529 10.0307 5.98462 9.73867 5.98462 9.28667V8.04667C5.98462 7.59467 5.98529 7.30267 6.01462 7.088C6.04129 6.886 6.08529 6.82267 6.12129 6.788" fill="#D8FFEE" fill-opacity="0.65"/>
<path id="Vector_2" fill-rule="evenodd" clip-rule="evenodd" d="M8.00004 2C8.25671 2 8.46537 2.208 8.46537 2.46533V4.32533C8.80493 4.32578 9.11493 4.32956 9.39537 4.33667V2.46533C9.39993 2.34505 9.45091 2.23122 9.53762 2.14773C9.62433 2.06425 9.74001 2.01761 9.86037 2.01761C9.98074 2.01761 10.0964 2.06425 10.1831 2.14773C10.2698 2.23122 10.3208 2.34505 10.3254 2.46533V4.32533C10.3249 4.34941 10.3231 4.37345 10.32 4.39733C10.944 4.474 11.3767 4.63267 11.7054 4.96133C12.034 5.29 12.1927 5.72267 12.2694 6.34667C12.2933 6.34359 12.3173 6.34181 12.3414 6.34133H14.2014C14.3217 6.34589 14.4355 6.39687 14.519 6.48358C14.6025 6.57029 14.6491 6.68597 14.6491 6.80633C14.6491 6.9267 14.6025 7.04238 14.519 7.12909C14.4355 7.21579 14.3217 7.26678 14.2014 7.27133H12.33C12.3376 7.55133 12.3414 7.86133 12.3414 8.20133H14.2014C14.3248 8.20133 14.4431 8.25036 14.5304 8.33763C14.6177 8.42489 14.6667 8.54325 14.6667 8.66667C14.6667 8.79008 14.6177 8.90844 14.5304 8.99571C14.4431 9.08297 14.3248 9.132 14.2014 9.132H12.3414C12.3409 9.47156 12.3372 9.78156 12.33 10.062H14.2014C14.3217 10.0666 14.4355 10.1175 14.519 10.2042C14.6025 10.291 14.6491 10.4066 14.6491 10.527C14.6491 10.6474 14.6025 10.763 14.519 10.8498C14.4355 10.9365 14.3217 10.9874 14.2014 10.992H12.3414C12.3173 10.9915 12.2933 10.9897 12.2694 10.9867C12.1927 11.6107 12.034 12.0433 11.7054 12.372C11.3767 12.7007 10.944 12.8593 10.32 12.936C10.324 12.9596 10.3258 12.9836 10.3254 13.008V14.868C10.3208 14.9883 10.2698 15.1021 10.1831 15.1856C10.0964 15.2691 9.98074 15.3157 9.86037 15.3157C9.74001 15.3157 9.62433 15.2691 9.53762 15.1856C9.45091 15.1021 9.39993 14.9883 9.39537 14.868V12.9967C9.11537 13.0042 8.80537 13.008 8.46537 13.008V14.868C8.46537 14.9914 8.41635 15.1098 8.32908 15.197C8.24181 15.2843 8.12345 15.3333 8.00004 15.3333C7.87663 15.3333 7.75827 15.2843 7.671 15.197C7.58373 15.1098 7.53471 14.9914 7.53471 14.868V13.008C7.22467 13.0081 6.91465 13.0043 6.60471 12.9967V14.868C6.60015 14.9883 6.54917 15.1021 6.46246 15.1856C6.37575 15.2691 6.26007 15.3157 6.13971 15.3157C6.01934 15.3157 5.90366 15.2691 5.81695 15.1856C5.73025 15.1021 5.67926 14.9883 5.67471 14.868V13.008C5.67471 12.9831 5.67649 12.9591 5.68004 12.936C5.05604 12.8593 4.62337 12.7007 4.29471 12.372C3.96604 12.0433 3.80737 11.6107 3.73071 10.9867C3.70682 10.9897 3.68279 10.9915 3.65871 10.992H1.79871C1.67843 10.9874 1.56459 10.9365 1.48111 10.8498C1.39762 10.763 1.35098 10.6474 1.35098 10.527C1.35098 10.4066 1.39762 10.291 1.48111 10.2042C1.56459 10.1175 1.67843 10.0666 1.79871 10.062H3.67004C3.6624 9.75206 3.65862 9.44203 3.65871 9.132H1.79871C1.67529 9.132 1.55693 9.08297 1.46967 8.99571C1.3824 8.90844 1.33337 8.79008 1.33337 8.66667C1.33337 8.54325 1.3824 8.42489 1.46967 8.33763C1.55693 8.25036 1.67529 8.20133 1.79871 8.20133H3.65871C3.65915 7.86178 3.66293 7.55178 3.67004 7.27133H1.79871C1.67843 7.26678 1.56459 7.21579 1.48111 7.12909C1.39762 7.04238 1.35098 6.9267 1.35098 6.80633C1.35098 6.68597 1.39762 6.57029 1.48111 6.48358C1.56459 6.39687 1.67843 6.34589 1.79871 6.34133H3.65871C3.6836 6.34133 3.7076 6.34311 3.73071 6.34667C3.80737 5.72267 3.96604 5.29 4.29471 4.96133C4.62337 4.63267 5.05604 4.474 5.68004 4.39733C5.67696 4.37345 5.67518 4.34941 5.67471 4.32533V2.46533C5.67926 2.34505 5.73025 2.23122 5.81695 2.14773C5.90366 2.06425 6.01934 2.01761 6.13971 2.01761C6.26007 2.01761 6.37575 2.06425 6.46246 2.14773C6.54917 2.23122 6.60015 2.34505 6.60471 2.46533V4.33667C6.88471 4.32911 7.19471 4.32533 7.53471 4.32533V2.46533C7.53471 2.208 7.74337 2 8.00004 2ZM7.34937 5.72067C6.93671 5.72067 6.58137 5.72067 6.29737 5.75933C5.99204 5.8 5.70004 5.89267 5.46271 6.12933C5.22604 6.36667 5.13337 6.65867 5.09271 6.964C5.05404 7.24867 5.05404 7.604 5.05404 8.016V9.31733C5.05404 9.73 5.05404 10.0847 5.09271 10.3693C5.13337 10.6747 5.22604 10.9667 5.46271 11.204C5.70004 11.4407 5.99204 11.5333 6.29737 11.574C6.58137 11.6127 6.93737 11.6127 7.34937 11.6127H8.65071C9.06337 11.6127 9.41804 11.6127 9.70271 11.574C10.008 11.5333 10.3 11.4407 10.5374 11.204C10.774 10.9667 10.8667 10.6747 10.9074 10.3693C10.946 10.0847 10.946 9.72933 10.946 9.31733V8.016C10.946 7.60333 10.946 7.24867 10.9074 6.964C10.8667 6.65867 10.774 6.36667 10.5374 6.12933C10.3 5.89267 10.008 5.8 9.70271 5.75933C9.41804 5.72067 9.06271 5.72067 8.65071 5.72067H7.34937Z" fill="#D8FFEE" fill-opacity="0.65"/>
</g>
</svg>
